<svg height='300px' width='300px'  fill="#000000" xmlns="http://www.w3.org/2000/svg" xmlns:xlink="http://www.w3.org/1999/xlink" version="1.0" x="0px" y="0px" viewBox="0 0 70.339 100" enable-background="new 0 0 70.339 100" xml:space="preserve"><g><path d="M53.64,32.223c-12.701,0-5.163-12.766-1.579-17.955c0.443,0.257,0.933,0.446,1.489,0.446c0.608,0,1.142-0.218,1.622-0.521   C58.737,19.339,66.401,32.223,53.64,32.223 M59.414,8.749c1.668-1.67,2.359-3.944,2.089-6.122   c-2.181-0.273-4.453,0.418-6.122,2.089c-0.854,0.85-1.353,1.88-1.686,2.951c-0.343-1.079-0.934-2.095-1.789-2.951   c-1.672-1.671-3.945-2.362-6.121-2.089c-0.275,2.177,0.418,4.451,2.088,6.122c0.815,0.819,1.779,1.395,2.807,1.744   c-0.01,0.02-0.023,0.033-0.031,0.055L34.121,8.934c-0.726-2.024-2.615-3.49-4.891-3.49c-1.063,0-1.993,0.395-2.817,0.936   l-0.051-0.083c-0.224,0.14-0.395,0.367-0.608,0.528c-0.103,0.09-0.212,0.167-0.307,0.266c-3.2,2.559-5.262,6.902-5.291,12.152   c0,2.745,0.575,5.717,1.883,8.739c1.241,2.868,2.55,5.331,3.485,7.577c0.94,2.252,1.505,4.233,1.504,6.291   c-0.002,0.833-0.097,1.703-0.31,2.635c-2.146-1.514-5-2.458-8.17-2.458c-3.876,0-8.752,1.413-10.948,3.57   c-3.808-2.391-5.131-5.79-5.131-5.79s-7.736,23.732,12.01,24.633L14.5,97.165l2.547,0.002h14.372   c-0.472-1.663-1.553-4.826-8.236-4.826c-0.177,0-2.292,0.016-2.452,0.021V64.31c15.948-2.064,14.973-18.928,10.025-30.939   c-1.274-3.09-2.39-5.028-3.514-7.638c-1.009-2.34-1.414-4.532-1.414-6.489c-0.011-1.573,0.314-2.928,0.75-4.131   c0.789,0.478,1.661,0.825,2.652,0.825c2.032,0,3.748-1.19,4.62-2.884l16.655-1.107c0.028,0.228,0.124,0.428,0.194,0.64   c-4.19,4.482-11.376,13.796-11.376,24.972c0,7.905,6.411,14.315,14.316,14.315c7.907,0,14.316-6.411,14.316-14.315   c0-11.88-7.267-20.959-11.442-25.206c0.063-0.248,0.154-0.487,0.154-0.754c0-0.373-0.095-0.725-0.216-1.059   C57.534,10.196,58.554,9.607,59.414,8.749"></path></g></svg>